<mxfile host="app.diagrams.net" modified="2023-05-10T18:32:50.703Z" agent="Mozilla/5.0 (Windows NT 10.0; Win64; x64) AppleWebKit/537.36 (KHTML, like Gecko) Chrome/112.0.0.0 Safari/537.36" etag="NebeI2wlaf0FEJIaLHNp" version="21.2.9" type="device">
  <diagram id="zkdOYTn5vW0a3zdd7zKN" name="페이지-2">
    <mxGraphModel dx="1050" dy="1742" grid="1" gridSize="10" guides="1" tooltips="1" connect="1" arrows="1" fold="1" page="1" pageScale="1" pageWidth="827" pageHeight="1169" math="0" shadow="0">
      <root>
        <mxCell id="0" />
        <mxCell id="1" parent="0" />
        <mxCell id="NG4u67nRFbZLVWhVFrk5-1" value="" style="rounded=0;whiteSpace=wrap;html=1;" parent="1" vertex="1">
          <mxGeometry x="150" y="-380" width="700" height="1000" as="geometry" />
        </mxCell>
        <mxCell id="TFM604kP1vKxrepBITnh-19" value="" style="rounded=0;whiteSpace=wrap;html=1;" parent="1" vertex="1">
          <mxGeometry x="350" y="326.5" width="300" height="263.5" as="geometry" />
        </mxCell>
        <mxCell id="TFM604kP1vKxrepBITnh-17" value="" style="rounded=0;whiteSpace=wrap;html=1;" parent="1" vertex="1">
          <mxGeometry x="180" y="-60" width="650" height="380" as="geometry" />
        </mxCell>
        <mxCell id="TFM604kP1vKxrepBITnh-15" value="" style="rounded=0;whiteSpace=wrap;html=1;" parent="1" vertex="1">
          <mxGeometry x="394" y="-370" width="120" height="280" as="geometry" />
        </mxCell>
        <mxCell id="FRXnbz1p3JDmP8_7-DGu-1" value="사용자" style="shape=umlActor;verticalLabelPosition=bottom;verticalAlign=top;html=1;" parent="1" vertex="1">
          <mxGeometry x="90" y="-310" width="30" height="60" as="geometry" />
        </mxCell>
        <mxCell id="FRXnbz1p3JDmP8_7-DGu-9" value="&lt;font style=&quot;font-size: 12px;&quot;&gt;회원가입&lt;/font&gt;" style="ellipse;whiteSpace=wrap;html=1;" parent="1" vertex="1">
          <mxGeometry x="414" y="-310" width="80" height="40" as="geometry" />
        </mxCell>
        <mxCell id="Z6H-5D1DCtQ5bn0lpksQ-1" value="" style="endArrow=none;html=1;rounded=0;exitX=1;exitY=0.3333333333333333;exitDx=0;exitDy=0;exitPerimeter=0;entryX=0;entryY=0.5;entryDx=0;entryDy=0;" parent="1" source="FRXnbz1p3JDmP8_7-DGu-1" target="FRXnbz1p3JDmP8_7-DGu-9" edge="1">
          <mxGeometry width="50" height="50" relative="1" as="geometry">
            <mxPoint x="390" y="390" as="sourcePoint" />
            <mxPoint x="440" y="340" as="targetPoint" />
          </mxGeometry>
        </mxCell>
        <mxCell id="Z6H-5D1DCtQ5bn0lpksQ-51" value="회사 회원" style="shape=umlActor;verticalLabelPosition=bottom;verticalAlign=top;html=1;outlineConnect=0;" parent="1" vertex="1">
          <mxGeometry x="70" y="15" width="30" height="60" as="geometry" />
        </mxCell>
        <mxCell id="Z6H-5D1DCtQ5bn0lpksQ-52" value="&lt;font style=&quot;font-size: 12px;&quot;&gt;채용 정보 등록&lt;/font&gt;" style="ellipse;whiteSpace=wrap;html=1;" parent="1" vertex="1">
          <mxGeometry x="200" y="-45" width="110" height="60" as="geometry" />
        </mxCell>
        <mxCell id="Z6H-5D1DCtQ5bn0lpksQ-53" value="&lt;font style=&quot;font-size: 12px;&quot;&gt;특정 채용 정보 상세 조회&lt;/font&gt;" style="ellipse;whiteSpace=wrap;html=1;" parent="1" vertex="1">
          <mxGeometry x="411.5" y="170" width="140" height="80" as="geometry" />
        </mxCell>
        <mxCell id="Z6H-5D1DCtQ5bn0lpksQ-54" value="&lt;font style=&quot;font-size: 12px;&quot;&gt;마감된 채용 정보 내역 조회&lt;/font&gt;" style="ellipse;whiteSpace=wrap;html=1;" parent="1" vertex="1">
          <mxGeometry x="190" y="255" width="150" height="60" as="geometry" />
        </mxCell>
        <mxCell id="Z6H-5D1DCtQ5bn0lpksQ-55" value="" style="endArrow=none;html=1;rounded=0;entryX=0;entryY=0.5;entryDx=0;entryDy=0;exitX=1;exitY=0.3333333333333333;exitDx=0;exitDy=0;exitPerimeter=0;" parent="1" source="Z6H-5D1DCtQ5bn0lpksQ-51" target="Z6H-5D1DCtQ5bn0lpksQ-52" edge="1">
          <mxGeometry width="50" height="50" relative="1" as="geometry">
            <mxPoint x="130" y="210" as="sourcePoint" />
            <mxPoint x="160" y="160" as="targetPoint" />
          </mxGeometry>
        </mxCell>
        <mxCell id="Z6H-5D1DCtQ5bn0lpksQ-56" value="" style="endArrow=none;html=1;rounded=0;entryX=0;entryY=0.5;entryDx=0;entryDy=0;exitX=1;exitY=0.3333333333333333;exitDx=0;exitDy=0;exitPerimeter=0;" parent="1" source="Z6H-5D1DCtQ5bn0lpksQ-51" target="Z6H-5D1DCtQ5bn0lpksQ-54" edge="1">
          <mxGeometry width="50" height="50" relative="1" as="geometry">
            <mxPoint x="140" y="240" as="sourcePoint" />
            <mxPoint x="200" y="190" as="targetPoint" />
          </mxGeometry>
        </mxCell>
        <mxCell id="Z6H-5D1DCtQ5bn0lpksQ-57" value="&lt;font style=&quot;font-size: 12px;&quot;&gt;채용 정보 리스트 조회&lt;/font&gt;" style="ellipse;whiteSpace=wrap;html=1;" parent="1" vertex="1">
          <mxGeometry x="200" y="15" width="120" height="60" as="geometry" />
        </mxCell>
        <mxCell id="Z6H-5D1DCtQ5bn0lpksQ-58" value="&amp;lt;&amp;lt;include&amp;gt;&amp;gt;" style="endArrow=open;endSize=12;dashed=1;html=1;rounded=0;exitX=1;exitY=0.5;exitDx=0;exitDy=0;entryX=0;entryY=0.5;entryDx=0;entryDy=0;" parent="1" source="Z6H-5D1DCtQ5bn0lpksQ-61" target="Z6H-5D1DCtQ5bn0lpksQ-53" edge="1">
          <mxGeometry x="-0.0651" y="25" width="160" relative="1" as="geometry">
            <mxPoint x="390" y="310" as="sourcePoint" />
            <mxPoint x="320" y="290" as="targetPoint" />
            <mxPoint as="offset" />
          </mxGeometry>
        </mxCell>
        <mxCell id="Z6H-5D1DCtQ5bn0lpksQ-59" value="" style="endArrow=none;html=1;rounded=0;exitX=1;exitY=0.3333333333333333;exitDx=0;exitDy=0;exitPerimeter=0;entryX=0;entryY=0.5;entryDx=0;entryDy=0;" parent="1" source="Z6H-5D1DCtQ5bn0lpksQ-51" target="Z6H-5D1DCtQ5bn0lpksQ-57" edge="1">
          <mxGeometry width="50" height="50" relative="1" as="geometry">
            <mxPoint x="120" y="220" as="sourcePoint" />
            <mxPoint x="190" y="200" as="targetPoint" />
          </mxGeometry>
        </mxCell>
        <mxCell id="Z6H-5D1DCtQ5bn0lpksQ-60" value="&lt;font style=&quot;font-size: 12px;&quot;&gt;항목 수정&lt;/font&gt;" style="ellipse;whiteSpace=wrap;html=1;" parent="1" vertex="1">
          <mxGeometry x="195" y="135" width="120" height="60" as="geometry" />
        </mxCell>
        <mxCell id="Z6H-5D1DCtQ5bn0lpksQ-61" value="&lt;font style=&quot;font-size: 12px;&quot;&gt;채용 정보 삭제&lt;/font&gt;" style="ellipse;whiteSpace=wrap;html=1;" parent="1" vertex="1">
          <mxGeometry x="195" y="75" width="120" height="60" as="geometry" />
        </mxCell>
        <mxCell id="Z6H-5D1DCtQ5bn0lpksQ-62" value="&lt;font style=&quot;font-size: 12px;&quot;&gt;채용 조기 마감&lt;/font&gt;" style="ellipse;whiteSpace=wrap;html=1;" parent="1" vertex="1">
          <mxGeometry x="195" y="195" width="120" height="60" as="geometry" />
        </mxCell>
        <mxCell id="Z6H-5D1DCtQ5bn0lpksQ-63" value="&amp;lt;&amp;lt;include&amp;gt;&amp;gt;" style="endArrow=open;endSize=12;dashed=1;html=1;rounded=0;exitX=1;exitY=0.5;exitDx=0;exitDy=0;entryX=0;entryY=0.5;entryDx=0;entryDy=0;" parent="1" source="Z6H-5D1DCtQ5bn0lpksQ-60" target="Z6H-5D1DCtQ5bn0lpksQ-53" edge="1">
          <mxGeometry x="-0.3333" y="-14" width="160" relative="1" as="geometry">
            <mxPoint x="315" y="330" as="sourcePoint" />
            <mxPoint x="510" y="460" as="targetPoint" />
            <mxPoint as="offset" />
          </mxGeometry>
        </mxCell>
        <mxCell id="Z6H-5D1DCtQ5bn0lpksQ-64" value="&amp;lt;&amp;lt;include&amp;gt;&amp;gt;" style="endArrow=open;endSize=12;dashed=1;html=1;rounded=0;exitX=1;exitY=0.5;exitDx=0;exitDy=0;entryX=0;entryY=0.5;entryDx=0;entryDy=0;" parent="1" source="Z6H-5D1DCtQ5bn0lpksQ-62" target="Z6H-5D1DCtQ5bn0lpksQ-53" edge="1">
          <mxGeometry x="-0.1953" y="-22" width="160" relative="1" as="geometry">
            <mxPoint x="325" y="340" as="sourcePoint" />
            <mxPoint x="520" y="470" as="targetPoint" />
            <mxPoint as="offset" />
          </mxGeometry>
        </mxCell>
        <mxCell id="Z6H-5D1DCtQ5bn0lpksQ-65" value="" style="endArrow=none;html=1;rounded=0;entryX=0;entryY=0.5;entryDx=0;entryDy=0;exitX=1;exitY=0.3333333333333333;exitDx=0;exitDy=0;exitPerimeter=0;" parent="1" source="Z6H-5D1DCtQ5bn0lpksQ-51" target="Z6H-5D1DCtQ5bn0lpksQ-61" edge="1">
          <mxGeometry width="50" height="50" relative="1" as="geometry">
            <mxPoint x="100" y="280" as="sourcePoint" />
            <mxPoint x="470" y="360" as="targetPoint" />
          </mxGeometry>
        </mxCell>
        <mxCell id="Z6H-5D1DCtQ5bn0lpksQ-66" value="" style="endArrow=none;html=1;rounded=0;entryX=0;entryY=0.5;entryDx=0;entryDy=0;exitX=1;exitY=0.3333333333333333;exitDx=0;exitDy=0;exitPerimeter=0;" parent="1" source="Z6H-5D1DCtQ5bn0lpksQ-51" target="Z6H-5D1DCtQ5bn0lpksQ-60" edge="1">
          <mxGeometry width="50" height="50" relative="1" as="geometry">
            <mxPoint x="100" y="280" as="sourcePoint" />
            <mxPoint x="470" y="360" as="targetPoint" />
          </mxGeometry>
        </mxCell>
        <mxCell id="Z6H-5D1DCtQ5bn0lpksQ-67" value="" style="endArrow=none;html=1;rounded=0;entryX=0;entryY=0.5;entryDx=0;entryDy=0;exitX=1;exitY=0.3333333333333333;exitDx=0;exitDy=0;exitPerimeter=0;" parent="1" source="Z6H-5D1DCtQ5bn0lpksQ-51" target="Z6H-5D1DCtQ5bn0lpksQ-62" edge="1">
          <mxGeometry width="50" height="50" relative="1" as="geometry">
            <mxPoint x="100" y="280" as="sourcePoint" />
            <mxPoint x="470" y="360" as="targetPoint" />
          </mxGeometry>
        </mxCell>
        <mxCell id="Z6H-5D1DCtQ5bn0lpksQ-70" value="일반 회원" style="shape=umlActor;verticalLabelPosition=bottom;verticalAlign=top;html=1;outlineConnect=0;" parent="1" vertex="1">
          <mxGeometry x="870" y="240" width="30" height="60" as="geometry" />
        </mxCell>
        <mxCell id="Z6H-5D1DCtQ5bn0lpksQ-71" value="&lt;span style=&quot;color: rgb(0, 0, 0); font-family: Helvetica; font-style: normal; font-variant-ligatures: normal; font-variant-caps: normal; font-weight: 400; letter-spacing: normal; orphans: 2; text-align: center; text-indent: 0px; text-transform: none; widows: 2; word-spacing: 0px; -webkit-text-stroke-width: 0px; background-color: rgb(251, 251, 251); text-decoration-thickness: initial; text-decoration-style: initial; text-decoration-color: initial; float: none; display: inline !important;&quot;&gt;&lt;font style=&quot;font-size: 12px;&quot;&gt;업무 검색&lt;/font&gt;&lt;/span&gt;" style="ellipse;whiteSpace=wrap;html=1;" parent="1" vertex="1">
          <mxGeometry x="695" y="160" width="114" height="50" as="geometry" />
        </mxCell>
        <mxCell id="Z6H-5D1DCtQ5bn0lpksQ-72" value="&lt;span style=&quot;color: rgb(0, 0, 0); font-family: Helvetica; font-style: normal; font-variant-ligatures: normal; font-variant-caps: normal; font-weight: 400; letter-spacing: normal; orphans: 2; text-align: center; text-indent: 0px; text-transform: none; widows: 2; word-spacing: 0px; -webkit-text-stroke-width: 0px; background-color: rgb(251, 251, 251); text-decoration-thickness: initial; text-decoration-style: initial; text-decoration-color: initial; float: none; display: inline !important;&quot;&gt;&lt;font style=&quot;font-size: 12px;&quot;&gt;상세 정보 조회&lt;/font&gt;&lt;/span&gt;" style="ellipse;whiteSpace=wrap;html=1;" parent="1" vertex="1">
          <mxGeometry x="693" y="210" width="118" height="50" as="geometry" />
        </mxCell>
        <mxCell id="Z6H-5D1DCtQ5bn0lpksQ-73" value="&lt;font style=&quot;font-size: 12px;&quot;&gt;회사 이름 검색&lt;/font&gt;" style="ellipse;whiteSpace=wrap;html=1;" parent="1" vertex="1">
          <mxGeometry x="691" y="110" width="118" height="50" as="geometry" />
        </mxCell>
        <mxCell id="Z6H-5D1DCtQ5bn0lpksQ-74" value="" style="endArrow=none;html=1;rounded=0;entryX=1;entryY=0.5;entryDx=0;entryDy=0;exitX=0;exitY=0.3333333333333333;exitDx=0;exitDy=0;exitPerimeter=0;" parent="1" source="Z6H-5D1DCtQ5bn0lpksQ-70" target="Z6H-5D1DCtQ5bn0lpksQ-73" edge="1">
          <mxGeometry width="50" height="50" relative="1" as="geometry">
            <mxPoint x="460" y="580" as="sourcePoint" />
            <mxPoint x="510" y="530" as="targetPoint" />
          </mxGeometry>
        </mxCell>
        <mxCell id="Z6H-5D1DCtQ5bn0lpksQ-75" value="" style="endArrow=none;html=1;rounded=0;entryX=1;entryY=0.5;entryDx=0;entryDy=0;exitX=0;exitY=0.3333333333333333;exitDx=0;exitDy=0;exitPerimeter=0;" parent="1" source="Z6H-5D1DCtQ5bn0lpksQ-70" target="Z6H-5D1DCtQ5bn0lpksQ-71" edge="1">
          <mxGeometry width="50" height="50" relative="1" as="geometry">
            <mxPoint x="460" y="580" as="sourcePoint" />
            <mxPoint x="880" y="420" as="targetPoint" />
          </mxGeometry>
        </mxCell>
        <mxCell id="Z6H-5D1DCtQ5bn0lpksQ-76" value="" style="endArrow=none;html=1;rounded=0;exitX=0;exitY=0.3333333333333333;exitDx=0;exitDy=0;exitPerimeter=0;entryX=1;entryY=0.5;entryDx=0;entryDy=0;" parent="1" source="Z6H-5D1DCtQ5bn0lpksQ-70" target="Z6H-5D1DCtQ5bn0lpksQ-72" edge="1">
          <mxGeometry width="50" height="50" relative="1" as="geometry">
            <mxPoint x="470" y="580" as="sourcePoint" />
            <mxPoint x="890" y="430" as="targetPoint" />
          </mxGeometry>
        </mxCell>
        <mxCell id="Z6H-5D1DCtQ5bn0lpksQ-77" value="&lt;span style=&quot;color: rgb(0, 0, 0); font-family: Helvetica; font-style: normal; font-variant-ligatures: normal; font-variant-caps: normal; font-weight: 400; letter-spacing: normal; orphans: 2; text-align: center; text-indent: 0px; text-transform: none; widows: 2; word-spacing: 0px; -webkit-text-stroke-width: 0px; background-color: rgb(251, 251, 251); text-decoration-thickness: initial; text-decoration-style: initial; text-decoration-color: initial; float: none; display: inline !important;&quot;&gt;&lt;font style=&quot;font-size: 12px;&quot;&gt;지원&lt;/font&gt;&lt;/span&gt;" style="ellipse;whiteSpace=wrap;html=1;" parent="1" vertex="1">
          <mxGeometry x="689" y="60" width="120" height="50" as="geometry" />
        </mxCell>
        <mxCell id="Z6H-5D1DCtQ5bn0lpksQ-78" value="" style="endArrow=none;html=1;rounded=0;entryX=1;entryY=0.5;entryDx=0;entryDy=0;exitX=0;exitY=0.3333333333333333;exitDx=0;exitDy=0;exitPerimeter=0;" parent="1" source="Z6H-5D1DCtQ5bn0lpksQ-70" target="Z6H-5D1DCtQ5bn0lpksQ-77" edge="1">
          <mxGeometry width="50" height="50" relative="1" as="geometry">
            <mxPoint x="465" y="580" as="sourcePoint" />
            <mxPoint x="885" y="570" as="targetPoint" />
          </mxGeometry>
        </mxCell>
        <mxCell id="Z6H-5D1DCtQ5bn0lpksQ-81" value="&lt;font style=&quot;font-size: 12px;&quot;&gt;채용 리스트 조회&lt;/font&gt;" style="ellipse;whiteSpace=wrap;html=1;" parent="1" vertex="1">
          <mxGeometry x="462.5" y="70" width="120" height="60" as="geometry" />
        </mxCell>
        <mxCell id="Z6H-5D1DCtQ5bn0lpksQ-85" value="&amp;lt;&amp;lt;include&amp;gt;&amp;gt;" style="endArrow=open;endSize=12;dashed=1;html=1;rounded=0;exitX=0;exitY=0.5;exitDx=0;exitDy=0;entryX=1;entryY=0.5;entryDx=0;entryDy=0;" parent="1" source="Z6H-5D1DCtQ5bn0lpksQ-73" target="Z6H-5D1DCtQ5bn0lpksQ-81" edge="1">
          <mxGeometry x="-0.2331" y="-17" width="160" relative="1" as="geometry">
            <mxPoint x="515" y="250" as="sourcePoint" />
            <mxPoint x="620" y="310" as="targetPoint" />
            <mxPoint as="offset" />
          </mxGeometry>
        </mxCell>
        <mxCell id="Z6H-5D1DCtQ5bn0lpksQ-86" value="&amp;lt;&amp;lt;include&amp;gt;&amp;gt;" style="endArrow=open;endSize=12;dashed=1;html=1;rounded=0;exitX=0;exitY=0.5;exitDx=0;exitDy=0;entryX=1;entryY=0.5;entryDx=0;entryDy=0;" parent="1" source="Z6H-5D1DCtQ5bn0lpksQ-71" target="Z6H-5D1DCtQ5bn0lpksQ-81" edge="1">
          <mxGeometry x="-0.1363" y="13" width="160" relative="1" as="geometry">
            <mxPoint x="525" y="260" as="sourcePoint" />
            <mxPoint x="630" y="320" as="targetPoint" />
            <mxPoint x="-1" as="offset" />
          </mxGeometry>
        </mxCell>
        <mxCell id="Z6H-5D1DCtQ5bn0lpksQ-93" value="지원정보조회" style="ellipse;whiteSpace=wrap;html=1;" parent="1" vertex="1">
          <mxGeometry x="510" y="336.5" width="100" height="40" as="geometry" />
        </mxCell>
        <mxCell id="Z6H-5D1DCtQ5bn0lpksQ-94" value="" style="endArrow=none;html=1;rounded=0;entryX=1;entryY=0.5;entryDx=0;entryDy=0;exitX=0;exitY=0.3333333333333333;exitDx=0;exitDy=0;exitPerimeter=0;" parent="1" source="Z6H-5D1DCtQ5bn0lpksQ-70" target="Z6H-5D1DCtQ5bn0lpksQ-93" edge="1">
          <mxGeometry width="50" height="50" relative="1" as="geometry">
            <mxPoint x="270" y="530" as="sourcePoint" />
            <mxPoint x="650" y="560" as="targetPoint" />
          </mxGeometry>
        </mxCell>
        <mxCell id="Z6H-5D1DCtQ5bn0lpksQ-95" value="" style="endArrow=none;html=1;rounded=0;entryX=1;entryY=0.5;entryDx=0;entryDy=0;exitX=0;exitY=0.3333333333333333;exitDx=0;exitDy=0;exitPerimeter=0;" parent="1" source="Z6H-5D1DCtQ5bn0lpksQ-70" target="Z6H-5D1DCtQ5bn0lpksQ-102" edge="1">
          <mxGeometry width="50" height="50" relative="1" as="geometry">
            <mxPoint x="270" y="530" as="sourcePoint" />
            <mxPoint x="490" y="533" as="targetPoint" />
          </mxGeometry>
        </mxCell>
        <mxCell id="Z6H-5D1DCtQ5bn0lpksQ-98" value="지원 취소" style="ellipse;whiteSpace=wrap;html=1;" parent="1" vertex="1">
          <mxGeometry x="500" y="383" width="132.5" height="40" as="geometry" />
        </mxCell>
        <mxCell id="Z6H-5D1DCtQ5bn0lpksQ-101" value="지원 횟수 정보 통계" style="ellipse;whiteSpace=wrap;html=1;" parent="1" vertex="1">
          <mxGeometry x="505" y="480" width="122.5" height="50" as="geometry" />
        </mxCell>
        <mxCell id="Z6H-5D1DCtQ5bn0lpksQ-102" value="지원정보삭제" style="ellipse;whiteSpace=wrap;html=1;" parent="1" vertex="1">
          <mxGeometry x="500" y="430" width="132.5" height="41" as="geometry" />
        </mxCell>
        <mxCell id="Z6H-5D1DCtQ5bn0lpksQ-105" value="" style="endArrow=none;html=1;rounded=0;exitX=0;exitY=0.3333333333333333;exitDx=0;exitDy=0;exitPerimeter=0;entryX=1;entryY=0.5;entryDx=0;entryDy=0;" parent="1" source="Z6H-5D1DCtQ5bn0lpksQ-70" target="Z6H-5D1DCtQ5bn0lpksQ-101" edge="1">
          <mxGeometry width="50" height="50" relative="1" as="geometry">
            <mxPoint x="570" y="640" as="sourcePoint" />
            <mxPoint x="620" y="590" as="targetPoint" />
          </mxGeometry>
        </mxCell>
        <mxCell id="Z6H-5D1DCtQ5bn0lpksQ-107" value="" style="endArrow=none;html=1;rounded=0;entryX=1;entryY=0;entryDx=0;entryDy=0;exitX=0;exitY=0.3333333333333333;exitDx=0;exitDy=0;exitPerimeter=0;" parent="1" source="Z6H-5D1DCtQ5bn0lpksQ-70" target="Z6H-5D1DCtQ5bn0lpksQ-98" edge="1">
          <mxGeometry width="50" height="50" relative="1" as="geometry">
            <mxPoint x="260" y="520" as="sourcePoint" />
            <mxPoint x="530" y="590" as="targetPoint" />
          </mxGeometry>
        </mxCell>
        <mxCell id="Z6H-5D1DCtQ5bn0lpksQ-117" value="지원자 통계 정보 조회" style="ellipse;whiteSpace=wrap;html=1;" parent="1" vertex="1">
          <mxGeometry x="360" y="330" width="120" height="53" as="geometry" />
        </mxCell>
        <mxCell id="Z6H-5D1DCtQ5bn0lpksQ-118" value="" style="endArrow=none;html=1;rounded=0;exitX=1;exitY=0.3333333333333333;exitDx=0;exitDy=0;exitPerimeter=0;entryX=0;entryY=0.5;entryDx=0;entryDy=0;" parent="1" source="Z6H-5D1DCtQ5bn0lpksQ-51" target="Z6H-5D1DCtQ5bn0lpksQ-117" edge="1">
          <mxGeometry width="50" height="50" relative="1" as="geometry">
            <mxPoint x="300" y="460" as="sourcePoint" />
            <mxPoint x="85" y="550" as="targetPoint" />
            <Array as="points">
              <mxPoint x="100" y="360" />
            </Array>
          </mxGeometry>
        </mxCell>
        <mxCell id="TFM604kP1vKxrepBITnh-2" value="회원" style="shape=umlActor;verticalLabelPosition=bottom;verticalAlign=top;html=1;" parent="1" vertex="1">
          <mxGeometry x="100" y="-170" width="30" height="60" as="geometry" />
        </mxCell>
        <mxCell id="TFM604kP1vKxrepBITnh-4" value="" style="endArrow=block;html=1;rounded=0;align=center;verticalAlign=bottom;endFill=0;labelBackgroundColor=none;endSize=8;exitX=0.5;exitY=0;exitDx=0;exitDy=0;exitPerimeter=0;entryX=0;entryY=0.3333333333333333;entryDx=0;entryDy=0;entryPerimeter=0;" parent="1" source="Z6H-5D1DCtQ5bn0lpksQ-51" target="TFM604kP1vKxrepBITnh-2" edge="1">
          <mxGeometry x="1" y="142" relative="1" as="geometry">
            <mxPoint x="50" y="370" as="sourcePoint" />
            <mxPoint x="90" y="-100" as="targetPoint" />
            <mxPoint x="110" y="52" as="offset" />
            <Array as="points">
              <mxPoint x="85" y="-150" />
            </Array>
          </mxGeometry>
        </mxCell>
        <mxCell id="TFM604kP1vKxrepBITnh-6" value="" style="endArrow=block;html=1;rounded=0;align=center;verticalAlign=bottom;endFill=0;labelBackgroundColor=none;endSize=8;exitX=0.5;exitY=0;exitDx=0;exitDy=0;exitPerimeter=0;entryX=0.5;entryY=0.5;entryDx=0;entryDy=0;entryPerimeter=0;" parent="1" source="Z6H-5D1DCtQ5bn0lpksQ-70" target="TFM604kP1vKxrepBITnh-2" edge="1">
          <mxGeometry x="1" y="142" relative="1" as="geometry">
            <mxPoint x="95" y="270" as="sourcePoint" />
            <mxPoint x="290" y="-140" as="targetPoint" />
            <mxPoint x="110" y="52" as="offset" />
            <Array as="points">
              <mxPoint x="890" y="-80" />
              <mxPoint x="200" y="-80" />
            </Array>
          </mxGeometry>
        </mxCell>
        <mxCell id="TFM604kP1vKxrepBITnh-7" value="" style="endArrow=none;html=1;rounded=0;exitX=1;exitY=0.3333333333333333;exitDx=0;exitDy=0;exitPerimeter=0;entryX=0;entryY=0.5;entryDx=0;entryDy=0;" parent="1" source="TFM604kP1vKxrepBITnh-2" target="TFM604kP1vKxrepBITnh-9" edge="1">
          <mxGeometry width="50" height="50" relative="1" as="geometry">
            <mxPoint x="340" y="-150" as="sourcePoint" />
            <mxPoint x="410" y="-220" as="targetPoint" />
          </mxGeometry>
        </mxCell>
        <mxCell id="TFM604kP1vKxrepBITnh-9" value="로그인" style="ellipse;whiteSpace=wrap;html=1;" parent="1" vertex="1">
          <mxGeometry x="411.5" y="-250" width="85" height="40" as="geometry" />
        </mxCell>
        <mxCell id="TFM604kP1vKxrepBITnh-10" value="로그아웃" style="ellipse;whiteSpace=wrap;html=1;" parent="1" vertex="1">
          <mxGeometry x="411.5" y="-200" width="85" height="40" as="geometry" />
        </mxCell>
        <mxCell id="TFM604kP1vKxrepBITnh-11" value="회원탈퇴" style="ellipse;whiteSpace=wrap;html=1;" parent="1" vertex="1">
          <mxGeometry x="411.5" y="-140" width="85" height="40" as="geometry" />
        </mxCell>
        <mxCell id="TFM604kP1vKxrepBITnh-12" value="" style="endArrow=none;html=1;rounded=0;exitX=1;exitY=0.3333333333333333;exitDx=0;exitDy=0;exitPerimeter=0;entryX=0;entryY=0.5;entryDx=0;entryDy=0;" parent="1" source="TFM604kP1vKxrepBITnh-2" target="TFM604kP1vKxrepBITnh-10" edge="1">
          <mxGeometry width="50" height="50" relative="1" as="geometry">
            <mxPoint x="320" y="-140" as="sourcePoint" />
            <mxPoint x="422" y="-220" as="targetPoint" />
          </mxGeometry>
        </mxCell>
        <mxCell id="TFM604kP1vKxrepBITnh-13" value="" style="endArrow=none;html=1;rounded=0;exitX=1;exitY=0.3333333333333333;exitDx=0;exitDy=0;exitPerimeter=0;entryX=0;entryY=0.5;entryDx=0;entryDy=0;" parent="1" source="TFM604kP1vKxrepBITnh-2" target="TFM604kP1vKxrepBITnh-11" edge="1">
          <mxGeometry width="50" height="50" relative="1" as="geometry">
            <mxPoint x="330" y="-130" as="sourcePoint" />
            <mxPoint x="432" y="-210" as="targetPoint" />
          </mxGeometry>
        </mxCell>
        <mxCell id="TFM604kP1vKxrepBITnh-16" value="&lt;font style=&quot;font-size: 14px;&quot;&gt;회원 관리 시스템&lt;/font&gt;" style="text;html=1;strokeColor=none;fillColor=none;align=center;verticalAlign=middle;whiteSpace=wrap;rounded=0;" parent="1" vertex="1">
          <mxGeometry x="424" y="-360" width="66" height="30" as="geometry" />
        </mxCell>
        <mxCell id="TFM604kP1vKxrepBITnh-18" value="&lt;font style=&quot;font-size: 14px;&quot;&gt;채용 관리 &lt;br&gt;시스템&lt;/font&gt;" style="text;html=1;strokeColor=none;fillColor=none;align=center;verticalAlign=middle;whiteSpace=wrap;rounded=0;" parent="1" vertex="1">
          <mxGeometry x="350" y="-40" width="100" height="30" as="geometry" />
        </mxCell>
        <mxCell id="TFM604kP1vKxrepBITnh-20" value="&lt;font style=&quot;font-size: 14px;&quot;&gt;지원 관리 &lt;br&gt;시스템&lt;/font&gt;" style="text;html=1;strokeColor=none;fillColor=none;align=center;verticalAlign=middle;whiteSpace=wrap;rounded=0;" parent="1" vertex="1">
          <mxGeometry x="546.5" y="555" width="86" height="30" as="geometry" />
        </mxCell>
        <mxCell id="NG4u67nRFbZLVWhVFrk5-2" value="&lt;font style=&quot;font-size: 16px;&quot;&gt;채용 정보 &lt;br&gt;관리 시스템&lt;/font&gt;" style="text;html=1;strokeColor=none;fillColor=none;align=center;verticalAlign=middle;whiteSpace=wrap;rounded=0;" parent="1" vertex="1">
          <mxGeometry x="160" y="-370" width="110" height="30" as="geometry" />
        </mxCell>
        <mxCell id="NG4u67nRFbZLVWhVFrk5-7" value="" style="endArrow=classic;html=1;rounded=0;" parent="1" source="TFM604kP1vKxrepBITnh-19" edge="1">
          <mxGeometry width="50" height="50" relative="1" as="geometry">
            <mxPoint x="600" y="570" as="sourcePoint" />
            <mxPoint x="650" y="520" as="targetPoint" />
          </mxGeometry>
        </mxCell>
        <mxCell id="NG4u67nRFbZLVWhVFrk5-9" style="edgeStyle=orthogonalEdgeStyle;rounded=0;orthogonalLoop=1;jettySize=auto;html=1;exitX=0.5;exitY=1;exitDx=0;exitDy=0;" parent="1" source="TFM604kP1vKxrepBITnh-19" target="TFM604kP1vKxrepBITnh-19" edge="1">
          <mxGeometry relative="1" as="geometry" />
        </mxCell>
      </root>
    </mxGraphModel>
  </diagram>
</mxfile>
